<?xml version="1.0" standalone="no"?>
<!DOCTYPE svg PUBLIC "-//W3C//DTD SVG 20010904//EN"
 "http://www.w3.org/TR/2001/REC-SVG-20010904/DTD/svg10.dtd">
<svg version="1.0" xmlns="http://www.w3.org/2000/svg"
 width="554.000000pt" height="554.000000pt" viewBox="0 0 554.000000 554.000000"
 preserveAspectRatio="xMidYMid meet">
<metadata>
Created by potrace 1.14, written by Peter Selinger 2001-2017
</metadata>
<g transform="translate(0.000000,554.000000) scale(0.100000,-0.100000)"
fill="#000000" stroke="none">
<path d="M2657 5166 c-223 -94 -414 -438 -541 -976 -52 -224 -52 -205 -3 -224
24 -9 45 -16 49 -16 3 0 9 21 13 48 11 74 90 376 128 487 105 306 237 514 369
579 131 65 272 -5 395 -197 72 -112 71 -109 26 -150 -21 -20 -52 -62 -68 -93
-39 -78 -41 -174 -5 -249 51 -105 156 -175 265 -175 l42 0 22 -97 c37 -167 36
-160 10 -168 -13 -4 -51 -20 -84 -35 -33 -14 -89 -37 -124 -50 -74 -27 -126
-71 -108 -90 8 -8 5 -8 -10 1 l-23 14 23 12 c50 28 0 10 -106 -37 -139 -63
-161 -74 -167 -81 -3 -3 -20 -11 -37 -18 -18 -7 -30 -18 -27 -23 4 -6 -2 -8
-15 -3 -11 3 -21 3 -21 -2 0 -4 -23 -19 -50 -32 -27 -14 -47 -28 -44 -33 3 -4
-1 -6 -8 -3 -7 3 -45 -14 -85 -38 -40 -23 -129 -75 -198 -116 -77 -44 -122
-77 -115 -81 8 -5 7 -9 -5 -13 -11 -5 -14 -3 -9 5 5 8 2 9 -12 4 -47 -20 -50
-19 -47 16 13 148 37 366 48 428 7 41 10 78 7 81 -10 10 -83 32 -88 27 -7 -8
-43 -271 -59 -432 -15 -157 -18 -243 -8 -218 2 6 11 12 18 12 18 0 28 -16 12
-18 -7 -1 -21 -3 -33 -5 -20 -3 -164 -94 -164 -103 0 -3 10 -3 23 1 19 5 20 4
4 -5 -9 -6 -22 -8 -27 -5 -12 8 -72 -33 -65 -45 3 -4 -3 -14 -13 -21 -15 -13
-16 -12 -3 4 22 28 -2 20 -39 -14 -19 -17 -28 -27 -20 -23 8 4 4 -5 -9 -19
-14 -15 -27 -27 -29 -27 -3 0 3 10 14 21 31 35 1 18 -80 -45 -66 -53 -74 -62
-65 -80 10 -20 9 -20 -5 -3 -14 18 -16 18 -45 -4 -17 -12 -28 -26 -25 -31 3
-4 0 -8 -6 -8 -7 0 -43 -26 -80 -57 -54 -46 -68 -63 -65 -81 3 -20 2 -22 -11
-11 -13 11 -27 1 -90 -62 l-74 -74 35 -28 35 -28 50 47 c27 25 47 52 43 58 -3
6 -2 8 2 3 13 -11 64 43 58 62 -4 13 -3 14 5 2 9 -12 19 -7 59 30 26 24 47 47
45 52 -1 4 3 7 9 7 6 0 24 10 39 23 16 12 41 31 56 41 26 18 26 20 9 33 -11 7
-14 13 -9 13 6 0 15 -5 20 -10 7 -7 30 5 72 37 52 40 60 49 49 62 -10 14 -10
14 4 3 13 -10 21 -8 43 9 14 11 24 24 21 29 -3 5 0 12 6 16 8 4 9 3 5 -4 -4
-7 -5 -12 -2 -12 6 0 121 78 165 112 13 10 28 18 34 18 7 0 8 -54 4 -161 -4
-89 -4 -237 0 -330 l6 -168 43 -30 c23 -17 46 -31 50 -31 4 0 4 93 1 208 -3
114 -3 293 0 399 l6 192 99 62 c92 59 118 79 83 66 -8 -4 -17 -2 -20 3 -3 4 7
7 22 5 37 -4 122 43 102 57 -10 7 -9 8 6 4 25 -7 129 50 119 66 -4 7 -3 8 4 4
15 -9 85 21 77 34 -3 6 0 7 10 4 9 -4 23 0 33 9 15 13 180 101 192 102 3 0 14
6 25 13 18 12 18 13 -8 7 -20 -4 -27 -2 -22 6 5 6 20 9 38 5 16 -3 35 -1 42 4
7 6 48 26 91 45 44 18 79 39 79 46 0 7 7 14 15 16 13 4 13 3 0 -6 -28 -20 8
-11 71 18 121 54 236 101 252 101 11 0 18 -18 26 -62 12 -72 37 -284 47 -405
l6 -82 51 -31 c27 -17 51 -29 52 -28 10 11 -58 618 -71 640 -5 7 14 21 31 24
6 1 60 18 120 37 121 39 212 63 391 103 96 21 154 27 299 31 224 6 297 -6 387
-67 33 -22 54 -32 47 -23 -13 16 -12 17 3 4 10 -7 15 -17 12 -22 -3 -5 -2 -14
2 -20 5 -8 9 -7 14 1 5 9 8 5 8 -11 0 -13 5 -48 12 -77 9 -43 8 -64 -6 -120
-20 -82 -67 -186 -122 -271 -23 -35 -39 -68 -36 -73 3 -4 0 -7 -8 -6 -8 2 -12
-5 -11 -19 2 -13 -2 -23 -8 -23 -5 0 -7 6 -3 13 4 6 -1 5 -11 -5 -18 -17 -12
-44 7 -32 7 4 8 2 4 -5 -6 -8 -12 -9 -20 -2 -9 8 -23 -2 -52 -36 -48 -58 -104
-119 -181 -198 -32 -33 -59 -64 -59 -70 -1 -5 -2 -16 -3 -22 0 -7 -6 -13 -12
-13 -8 0 -8 5 1 15 18 22 -4 18 -24 -4 -10 -11 -15 -25 -10 -32 5 -8 3 -10 -5
-5 -14 9 -53 -22 -46 -35 3 -4 0 -11 -6 -15 -8 -4 -9 -3 -5 4 13 22 -3 12 -46
-28 -24 -22 -45 -40 -49 -40 -16 0 -80 -71 -73 -81 4 -8 3 -9 -5 -5 -12 8 -96
-52 -87 -62 3 -3 16 3 28 14 l23 19 -19 -23 c-11 -12 -26 -20 -34 -17 -11 4
-136 -81 -234 -160 -33 -27 -122 -84 -125 -81 -2 2 -4 150 -4 329 l0 326 -42
29 c-23 16 -46 31 -52 34 -7 4 -9 -103 -7 -315 2 -177 1 -359 -3 -404 l-7 -82
-93 -58 c-51 -32 -92 -60 -89 -64 2 -4 -2 -6 -9 -5 -20 2 -216 -117 -210 -127
3 -6 1 -7 -6 -3 -7 5 -49 -13 -99 -41 -48 -27 -95 -53 -105 -56 -10 -4 -15
-12 -12 -18 4 -6 14 -8 24 -4 12 5 13 4 4 -6 -9 -9 -15 -9 -26 0 -8 6 -22 8
-32 5 -17 -7 -17 -8 1 -21 10 -7 13 -13 8 -13 -6 0 -14 4 -20 10 -10 10 -71
-7 -95 -27 -8 -6 -69 -37 -136 -68 -67 -32 -120 -62 -117 -67 3 -4 -2 -5 -10
-2 -8 3 -61 -14 -118 -39 -57 -25 -114 -48 -128 -52 -14 -4 -30 -12 -37 -17
-8 -6 -13 0 -17 19 -14 68 -36 239 -46 363 -6 74 -13 144 -16 155 -2 11 -26
35 -54 53 l-50 32 0 -27 c0 -52 30 -334 50 -481 11 -79 18 -147 15 -150 -12
-12 -180 -65 -335 -107 -273 -72 -532 -100 -701 -76 -86 13 -169 42 -190 67
-6 8 -14 12 -18 9 -11 -6 -60 75 -72 119 -18 66 11 203 62 299 7 14 3 23 -18
42 -16 13 -33 25 -38 25 -16 0 -39 -45 -71 -135 -36 -105 -40 -235 -7 -305 25
-55 85 -122 104 -117 8 2 11 2 6 0 -11 -7 2 -23 18 -23 8 0 11 8 8 23 -4 18
-3 19 6 7 6 -8 8 -22 6 -30 -5 -17 19 -29 110 -57 73 -22 340 -26 483 -7 109
14 382 76 485 110 35 12 46 19 38 27 -6 6 -11 15 -11 21 0 5 6 1 14 -9 13 -18
15 -18 76 -1 71 20 74 18 84 -48 13 -79 68 -292 108 -416 135 -422 308 -665
508 -716 248 -63 477 182 646 691 45 135 114 401 126 483 2 20 -4 27 -44 42
-27 10 -48 17 -48 15 0 -1 -11 -56 -24 -121 -86 -415 -228 -758 -379 -915
-126 -132 -258 -140 -386 -23 -81 72 -179 240 -256 434 -61 154 -165 547 -165
619 0 11 28 26 90 50 53 20 87 37 83 44 -3 5 -1 7 5 3 20 -12 275 100 265 117
-3 6 -1 7 4 4 14 -9 115 38 105 48 -4 5 -1 5 6 1 11 -7 134 46 152 64 3 3 18
11 33 18 17 7 25 17 21 24 -4 7 -3 8 4 4 6 -3 44 11 84 33 111 59 139 77 130
86 -4 5 -2 5 5 1 7 -3 74 31 152 79 77 47 143 85 147 85 11 0 -30 -405 -52
-520 -6 -25 -3 -31 20 -40 77 -29 70 -39 95 142 12 90 28 237 36 328 13 150
17 167 37 184 13 10 22 23 20 29 -2 5 4 7 12 4 16 -6 40 16 29 27 -4 4 0 4 9
1 19 -7 183 107 183 128 1 7 7 11 14 9 16 -3 73 37 66 48 -3 4 3 7 13 6 10 0
17 6 17 16 0 10 7 23 15 30 12 11 12 11 1 -4 -20 -27 3 -22 38 7 19 17 28 32
25 43 -5 13 -4 14 4 3 8 -11 19 -7 59 25 103 82 223 197 216 207 -4 6 -1 7 6
3 15 -10 233 212 224 227 -3 6 -1 7 4 4 14 -9 37 19 28 32 -3 6 0 9 7 6 13 -4
43 31 142 169 54 75 72 111 42 87 -10 -9 -15 -8 -19 2 -4 10 2 13 20 11 15 -1
26 4 30 14 4 9 17 34 30 55 44 70 85 213 85 296 1 80 -25 167 -45 154 -6 -4
-8 0 -5 8 7 19 -17 53 -31 44 -6 -3 -9 0 -5 8 9 24 -32 30 -81 13 -13 -5 -11
-2 5 8 14 8 19 15 11 16 -8 0 -12 3 -9 6 4 3 16 1 27 -6 36 -19 23 -2 -19 26
-22 15 -46 24 -55 20 -9 -3 -13 -2 -10 4 8 14 -87 39 -198 52 -75 9 -127 9
-230 -1 -127 -12 -337 -48 -347 -60 -3 -3 -21 -7 -40 -8 -36 -2 -328 -86 -368
-105 -14 -7 -26 -8 -31 -2 -4 5 -18 54 -29 109 -11 55 -24 108 -27 118 -4 9
-3 17 3 17 22 0 114 95 135 139 34 71 31 187 -6 263 -33 68 -135 153 -174 145
-12 -2 -20 0 -17 4 5 9 -46 14 -107 10 -32 -2 -38 1 -50 31 -26 62 -129 206
-185 257 -82 75 -141 102 -233 108 -64 3 -85 0 -134 -21z m1942 -1032 c10 -9
-35 -3 -49 6 -11 8 -7 9 15 4 17 -4 32 -8 34 -10z m-416 -11 c-7 -2 -21 -2
-30 0 -10 3 -4 5 12 5 17 0 24 -2 18 -5z m-97 -26 c1 -9 -2 -15 -7 -11 -5 3
-7 9 -4 14 3 5 -3 11 -12 14 -15 4 -15 5 1 3 11 -1 20 -10 22 -20z m594 19 c0
-2 -9 -6 -20 -9 -11 -3 -18 -1 -14 4 5 9 34 13 34 5z m-710 -26 c0 -5 -4 -10
-10 -10 -5 0 -10 5 -10 10 0 6 5 10 10 10 6 0 10 -4 10 -10z m370 6 c0 -3 -4
-8 -10 -11 -5 -3 -10 -1 -10 4 0 6 5 11 10 11 6 0 10 -2 10 -4z m137 -12 c-3
-3 -12 -4 -19 -1 -8 3 -5 6 6 6 11 1 17 -2 13 -5z m93 -4 c-8 -5 -19 -10 -25
-10 -5 0 -3 5 5 10 8 5 20 10 25 10 6 0 3 -5 -5 -10z m163 -10 c-10 -11 -19
-20 -21 -20 -1 0 2 9 8 20 6 11 15 20 20 20 6 0 2 -9 -7 -20z m-88 0 c-3 -5
-12 -10 -18 -10 -7 0 -6 4 3 10 19 12 23 12 15 0z m-605 -15 c0 -10 -40 -10
-43 0 -4 8 3 10 19 7 13 -2 24 -6 24 -7z m-173 -11 c-3 -3 -12 -4 -19 -1 -8 3
-5 6 6 6 11 1 17 -2 13 -5z m58 -14 c3 -6 -1 -7 -9 -4 -18 7 -21 14 -7 14 6 0
13 -4 16 -10z m-235 -10 c-8 -5 -22 -10 -30 -10 -13 0 -13 1 0 10 8 5 22 10
30 10 13 0 13 -1 0 -10z m117 4 c-3 -3 -12 -4 -19 -1 -8 3 -5 6 6 6 11 1 17
-2 13 -5z m928 -12 c-3 -3 -11 0 -18 7 -9 10 -8 11 6 5 10 -3 15 -9 12 -12z
m-870 -2 c-27 -12 -43 -12 -25 0 8 5 22 9 30 9 10 0 8 -3 -5 -9z m920 0 c3 -6
-1 -7 -9 -4 -18 7 -21 14 -7 14 6 0 13 -4 16 -10z m-1013 -7 c-6 -2 -9 -10 -6
-15 4 -7 2 -8 -5 -4 -13 9 -5 26 12 25 9 0 8 -2 -1 -6z m-287 -43 c3 -6 -1 -7
-9 -4 -18 7 -21 14 -7 14 6 0 13 -4 16 -10z m142 -16 c-3 -3 -12 -4 -19 -1 -8
3 -5 6 6 6 11 1 17 -2 13 -5z m-170 -36 c-3 -8 -6 -5 -6 6 -1 11 2 17 5 13 3
-3 4 -12 1 -19z m83 12 c0 -5 -4 -10 -10 -10 -5 0 -10 5 -10 10 0 6 5 10 10
10 6 0 10 -4 10 -10z m1297 -47 c-3 -10 -5 -4 -5 12 0 17 2 24 5 18 2 -7 2
-21 0 -30z m-1552 -13 c-3 -5 -14 -10 -23 -9 -14 0 -13 2 3 9 27 11 27 11 20
0z m-128 -36 c-3 -3 -12 -4 -19 -1 -8 3 -5 6 6 6 11 1 17 -2 13 -5z m1703 -24
c0 -11 -2 -20 -4 -20 -2 0 -6 9 -9 20 -3 11 -1 20 4 20 5 0 9 -9 9 -20z
m-1690 -30 c-8 -5 -19 -10 -25 -10 -5 0 -3 5 5 10 8 5 20 10 25 10 6 0 3 -5
-5 -10z m1707 -12 c-3 -8 -6 -5 -6 6 -1 11 2 17 5 13 3 -3 4 -12 1 -19z
m-1880 -34 c-3 -3 -12 -4 -19 -1 -8 3 -5 6 6 6 11 1 17 -2 13 -5z m-112 -14
c-3 -5 -12 -10 -18 -10 -7 0 -6 4 3 10 19 12 23 12 15 0z m110 -10 c3 -6 -1
-7 -10 -4 -10 4 -15 2 -13 -6 2 -7 -4 -15 -12 -17 -13 -4 -13 -3 0 6 8 6 11
11 7 11 -11 0 2 20 13 20 5 0 12 -4 15 -10z m1813 -105 c-3 -3 -9 2 -12 12 -6
14 -5 15 5 6 7 -7 10 -15 7 -18z m52 7 c0 -5 -7 -17 -16 -28 -8 -10 -14 -14
-11 -9 2 6 7 18 10 28 7 17 17 23 17 9z m-2105 -22 c-3 -5 -11 -10 -16 -10 -6
0 -7 5 -4 10 3 6 11 10 16 10 6 0 7 -4 4 -10z m-45 -30 c-24 -15 -36 -11 -14
4 10 8 21 12 24 10 2 -3 -2 -9 -10 -14z m-306 -95 c-4 -8 -11 -15 -16 -15 -6
0 -5 6 2 15 7 8 14 15 16 15 2 0 1 -7 -2 -15z m136 10 c0 -2 -10 -10 -22 -16
-21 -11 -22 -11 -9 4 13 16 31 23 31 12z m-170 -35 c0 -5 -4 -10 -10 -10 -5 0
-10 5 -10 10 0 6 5 10 10 10 6 0 10 -4 10 -10z m2339 -16 c-10 -13 -10 -17 1
-24 20 -13 32 -2 25 23 -5 20 -5 20 6 4 8 -14 8 -22 0 -30 -19 -19 -38 -16
-50 10 -7 15 -7 22 -1 18 5 -3 10 -1 10 4 0 6 5 11 11 11 8 0 7 -5 -2 -16z
m-2394 -14 c-3 -5 -1 -10 6 -10 7 0 10 -3 6 -6 -9 -9 -28 6 -22 17 4 5 8 9 11
9 3 0 2 -4 -1 -10z m110 0 c-3 -5 -12 -10 -18 -10 -7 0 -6 4 3 10 19 12 23 12
15 0z m-145 -18 c0 -5 -12 -15 -27 -23 -47 -23 -49 -22 -14 5 38 29 41 30 41
18z m10 -52 c0 -5 -5 -10 -11 -10 -5 0 -7 5 -4 10 3 6 8 10 11 10 2 0 4 -4 4
-10z m-91 -49 c8 -5 9 -11 3 -15 -5 -3 -15 1 -22 9 -14 16 -3 20 19 6z m2361
-34 c0 -2 -10 -12 -22 -23 l-23 -19 19 23 c18 21 26 27 26 19z m55 -7 c3 -5 2
-10 -4 -10 -5 0 -13 5 -16 10 -3 6 -2 10 4 10 5 0 13 -4 16 -10z m-2657 -79
c11 -6 10 -11 -3 -25 -22 -21 -28 -20 -15 3 7 14 6 21 -3 24 -6 3 -7 6 -2 6 6
0 16 -3 23 -8z m-41 -16 c0 -8 -5 -11 -10 -8 -5 3 -13 -1 -18 -8 -6 -9 -9 -10
-9 -2 0 9 19 27 36 33 0 0 1 -7 1 -15z m2560 0 c0 -8 -4 -12 -9 -9 -5 3 -6 10
-3 15 9 13 12 11 12 -6z m-2505 -37 c-7 -7 -12 -8 -12 -2 0 14 12 26 19 19 2
-3 -1 -11 -7 -17z m-62 -2 c0 -3 -4 -8 -10 -11 -5 -3 -10 -1 -10 4 0 6 5 11
10 11 6 0 10 -2 10 -4z m2546 -15 c-11 -12 -15 -27 -11 -39 3 -12 1 -24 -6
-28 -8 -4 -9 -3 -5 5 4 6 1 23 -8 36 -19 29 -20 35 -5 35 5 0 7 -4 4 -10 -10
-16 11 -12 25 5 7 8 15 15 18 15 3 0 -3 -9 -12 -19z m24 -11 c-6 -11 -13 -20
-16 -20 -2 0 0 9 6 20 6 11 13 20 16 20 2 0 0 -9 -6 -20z m-2634 -9 c-18 -7
-18 -8 -2 -14 10 -4 23 -4 29 -1 9 5 9 4 1 -5 -9 -10 -17 -10 -33 -1 -24 12
-19 30 7 29 14 0 14 -2 -2 -8z m2558 -37 c3 -8 2 -12 -4 -9 -6 3 -10 10 -10
16 0 14 7 11 14 -7z m-14 -24 c0 -5 -2 -10 -4 -10 -3 0 -8 5 -11 10 -3 6 -1
10 4 10 6 0 11 -4 11 -10z m-42 -68 c15 12 15 11 4 -4 -14 -18 -47 -13 -35 5
5 8 8 7 11 -1 3 -10 7 -10 20 0z m-2741 -19 c-4 -3 1 -12 11 -20 15 -13 15
-13 -5 -3 -24 11 -31 30 -11 30 6 0 8 -3 5 -7z m2668 -12 c3 -5 2 -12 -3 -15
-5 -3 -9 1 -9 9 0 17 3 19 12 6z m-31 -41 c-6 -6 -10 -3 -10 10 0 13 4 16 10
10 7 -7 7 -13 0 -20z m-2694 -5 c0 -8 -7 -15 -15 -15 -13 0 -14 3 -3 15 16 18
18 18 18 0z m43 -9 c4 -10 1 -13 -9 -9 -15 6 -19 23 -5 23 5 0 11 -7 14 -14z
m2576 -29 c0 -9 -2 -8 -6 1 -2 6 -10 9 -15 6 -7 -4 -8 -2 -4 5 9 13 26 5 25
-12z m15 -36 c-10 -10 -21 -16 -24 -14 -3 3 4 11 14 19 28 20 33 17 10 -5z
m-2741 -36 c-3 -9 -8 -14 -10 -11 -3 3 -2 9 2 15 9 16 15 13 8 -4z m-53 -15
c0 -5 -4 -10 -10 -10 -5 0 -10 5 -10 10 0 6 5 10 10 10 6 0 10 -4 10 -10z
m-58 -39 c-7 -4 -12 -14 -10 -21 2 -7 -3 -14 -10 -15 -7 -2 -8 -1 -2 2 5 2 8
9 4 14 -7 12 4 29 19 29 8 0 8 -3 -1 -9z m2748 -1 c0 -5 -5 -10 -11 -10 -5 0
-7 5 -4 10 3 6 8 10 11 10 2 0 4 -4 4 -10z m-60 -10 c0 -5 -5 -10 -11 -10 -5
0 -7 5 -4 10 3 6 8 10 11 10 2 0 4 -4 4 -10z m-2640 -24 c0 -2 -8 -10 -17 -17
-16 -13 -17 -12 -4 4 13 16 21 21 21 13z m2640 -10 c0 -2 -8 -10 -17 -17 -16
-13 -17 -12 -4 4 13 16 21 21 21 13z m-2739 -33 c11 -15 11 -16 0 -6 -7 6 -20
9 -29 6 -10 -4 -13 -2 -8 5 10 17 21 15 37 -5z m2619 2 c0 -2 -10 -10 -22 -16
-21 -11 -22 -11 -9 4 13 16 31 23 31 12z m40 1 c0 -3 -4 -8 -10 -11 -5 -3 -10
-1 -10 4 0 6 5 11 10 11 6 0 10 -2 10 -4z m-2685 -66 c3 -6 -1 -7 -9 -4 -18 7
-21 14 -7 14 6 0 13 -4 16 -10z m2655 6 c0 -3 -4 -8 -10 -11 -5 -3 -10 -1 -10
4 0 6 5 11 10 11 6 0 10 -2 10 -4z m-50 -12 c0 -8 -19 -13 -24 -6 -3 5 1 9 9
9 8 0 15 -2 15 -3z m-2649 -21 c13 -16 12 -17 -3 -4 -10 7 -18 15 -18 17 0 8
8 3 21 -13z m2554 -63 c3 -6 -1 -7 -9 -4 -18 7 -21 14 -7 14 6 0 13 -4 16 -10z
m-85 -40 c9 -5 19 -5 27 2 7 6 13 6 13 2 0 -5 -9 -15 -21 -22 -12 -8 -18 -9
-14 -3 3 6 4 11 1 11 -2 0 -12 3 -21 6 -10 4 -15 2 -13 -6 2 -7 -4 -15 -12
-17 -13 -4 -13 -3 0 6 13 10 13 11 0 11 -13 0 -13 1 0 10 19 12 21 12 40 0z
m-70 -24 c0 -3 -4 -8 -10 -11 -5 -3 -10 -1 -10 4 0 6 5 11 10 11 6 0 10 -2 10
-4z m-101 -45 c-13 -11 -26 -17 -28 -15 -5 5 30 33 43 34 4 0 -2 -9 -15 -19z
m-88 -65 c-9 -11 -8 -15 6 -20 16 -7 15 -9 -7 -26 -30 -23 -53 -27 -24 -4 19
15 18 15 -3 9 -12 -3 -25 -1 -29 6 -4 8 -3 9 4 5 7 -4 20 -2 29 3 14 8 15 11
3 11 -12 0 -10 4 4 15 25 19 32 19 17 1z m-80 -59 c-10 -9 -11 -8 -5 6 3 10 9
15 12 12 3 -3 0 -11 -7 -18z m139 13 c-8 -5 -19 -10 -25 -10 -5 0 -3 5 5 10 8
5 20 10 25 10 6 0 3 -5 -5 -10z m-40 -14 c0 -2 -7 -7 -16 -10 -8 -3 -12 -2 -9
4 6 10 25 14 25 6z m-161 -39 c16 -20 3 -27 -25 -15 -18 8 -21 14 -12 20 18
11 24 10 37 -5z m-91 -41 c-10 -7 -15 -16 -11 -19 3 -4 2 -7 -4 -7 -22 0 -22
15 -1 27 30 16 38 16 16 -1z m112 -6 c-8 -5 -19 -10 -25 -10 -5 0 -3 5 5 10 8
5 20 10 25 10 6 0 3 -5 -5 -10z m-78 -42 c-9 -9 -15 -9 -24 1 -9 10 -9 12 -1
7 6 -3 15 -1 18 5 4 5 10 8 13 4 3 -3 0 -11 -6 -17z m-186 -40 c-1 -7 -5 -18
-9 -24 -4 -7 0 -17 7 -23 10 -8 16 -9 21 -1 3 5 11 10 18 10 6 0 2 -6 -8 -14
-17 -12 -22 -12 -41 3 -12 9 -20 19 -17 24 2 4 -2 7 -9 7 -9 1 25 27 39 30 1
0 0 -6 -1 -12z m-2291 -68 c3 -5 1 -10 -4 -10 -6 0 -11 5 -11 10 0 6 2 10 4
10 3 0 8 -4 11 -10z m2255 -14 c0 -3 -4 -8 -10 -11 -5 -3 -10 -1 -10 4 0 6 5
11 10 11 6 0 10 -2 10 -4z m-2220 -16 c0 -5 -7 -7 -15 -4 -8 4 -15 8 -15 10 0
2 7 4 15 4 8 0 15 -4 15 -10z m-64 -18 c0 -10 -6 -19 -13 -19 -8 0 -9 6 -2 19
5 10 11 18 12 18 2 0 3 -8 3 -18z m-3 -79 c-3 -7 -6 -13 -8 -13 -2 0 -5 6 -8
13 -3 8 1 14 8 14 7 0 11 -6 8 -14z m1899 -23 c-12 -11 -25 -20 -29 -20 -9 1
36 40 45 40 3 0 -4 -9 -16 -20z m103 10 c3 -5 2 -10 -4 -10 -5 0 -13 5 -16 10
-3 6 -2 10 4 10 5 0 13 -4 16 -10z m-25 -34 c0 -2 -7 -7 -16 -10 -8 -3 -12 -2
-9 4 6 10 25 14 25 6z m-390 -116 c0 -5 -5 -10 -11 -10 -5 0 -7 5 -4 10 3 6 8
10 11 10 2 0 4 -4 4 -10z m-23 -36 c-3 -3 -12 -4 -19 -1 -8 3 -5 6 6 6 11 1
17 -2 13 -5z m-177 -28 c0 -2 -7 -7 -16 -10 -8 -3 -12 -2 -9 4 6 10 25 14 25
6z m-1428 -48 c-7 -7 -12 -8 -12 -2 0 14 12 26 19 19 2 -3 -1 -11 -7 -17z m49
-5 c-12 -20 -14 -14 -5 12 4 9 9 14 11 11 3 -2 0 -13 -6 -23z m1296 -19 c-3
-3 -12 -4 -19 -1 -8 3 -5 6 6 6 11 1 17 -2 13 -5z m-1282 -40 c-8 -9 -19 -12
-25 -9 -15 9 -5 20 19 22 19 2 20 0 6 -13z m1245 6 c0 -5 -4 -10 -10 -10 -5 0
-10 5 -10 10 0 6 5 10 10 10 6 0 10 -4 10 -10z m-125 -17 c-15 -8 -29 -12 -33
-9 -3 3 1 6 9 6 11 0 11 2 1 8 -8 6 -1 9 19 9 l31 0 -27 -14z m-165 -23 c-12
-8 -12 -10 -1 -10 8 0 12 -3 8 -6 -9 -9 -28 6 -22 17 4 5 12 9 18 9 7 0 6 -4
-3 -10z m-80 -10 c-8 -5 -19 -10 -25 -10 -5 0 -3 5 5 10 8 5 20 10 25 10 6 0
3 -5 -5 -10z m-770 -10 c-20 -13 -33 -13 -25 0 3 6 14 10 23 10 15 0 15 -2 2
-10z m723 -7 c-7 -2 -19 -2 -25 0 -7 3 -2 5 12 5 14 0 19 -2 13 -5z m210 -10
c-7 -2 -19 -2 -25 0 -7 3 -2 5 12 5 14 0 19 -2 13 -5z m-818 -14 c11 -17 -1
-21 -15 -4 -8 9 -8 15 -2 15 6 0 14 -5 17 -11z m55 -9 c0 -5 -4 -10 -10 -10
-5 0 -10 5 -10 10 0 6 5 10 10 10 6 0 10 -4 10 -10z m-103 -6 c-3 -3 -12 -4
-19 -1 -8 3 -5 6 6 6 11 1 17 -2 13 -5z m703 -4 c-8 -5 -19 -10 -25 -10 -5 0
-3 5 5 10 8 5 20 10 25 10 6 0 3 -5 -5 -10z m-383 -6 c-3 -3 -12 -4 -19 -1 -8
3 -5 6 6 6 11 1 17 -2 13 -5z m-217 -14 c0 -5 -4 -10 -10 -10 -5 0 -10 5 -10
10 0 6 5 10 10 10 6 0 10 -4 10 -10z m477 -6 c-3 -3 -12 -4 -19 -1 -8 3 -5 6
6 6 11 1 17 -2 13 -5z"/>
<path d="M3250 2196 c0 -2 7 -7 16 -10 8 -3 12 -2 9 4 -6 10 -25 14 -25 6z"/>
<path d="M2610 3311 c-100 -32 -163 -72 -240 -150 -118 -119 -160 -223 -160
-396 1 -164 58 -295 179 -406 176 -162 422 -195 641 -86 79 39 192 149 233
225 70 130 88 313 44 443 -62 181 -204 319 -386 373 -75 22 -238 21 -311 -3z
m140 -141 l0 -130 -34 0 c-30 0 -34 3 -40 33 -5 24 -16 38 -46 55 -22 12 -40
29 -40 38 0 33 112 131 153 134 4 0 7 -58 7 -130z m112 99 c14 -11 39 -34 54
-52 33 -39 86 -149 76 -158 -4 -3 -51 -9 -104 -12 l-98 -6 0 130 0 130 23 -7
c12 -3 34 -15 49 -25z m-268 -36 c-20 -27 -38 -49 -39 -51 -2 -2 -16 3 -33 12
-16 8 -32 12 -36 9 -3 -4 -6 -37 -6 -75 l0 -70 -27 6 c-16 3 -45 8 -65 12 -21
3 -38 8 -38 11 0 31 127 135 211 172 67 30 72 25 33 -26z m387 23 c63 -27 145
-87 183 -132 14 -18 26 -34 26 -37 0 -5 -114 -27 -141 -27 -8 0 -24 25 -37 58
-12 31 -40 81 -62 110 -22 28 -36 52 -31 52 5 0 33 -11 62 -24z m-385 -121
c55 -31 62 -39 68 -72 10 -65 7 -153 -6 -153 -6 0 -44 21 -85 46 l-73 45 0 91
c0 103 -7 100 96 43z m-163 -101 c55 -7 54 -2 35 -150 l-11 -94 -110 0 -110 0
7 49 c9 67 32 139 56 180 18 29 25 32 53 28 18 -4 53 -9 80 -13z m814 -36 c24
-50 53 -153 53 -187 0 -21 -4 -22 -102 -19 -94 3 -103 5 -106 23 -2 11 -7 29
-12 40 -10 23 -34 165 -29 169 7 6 125 24 149 22 19 -1 30 -12 47 -48z m-233
14 c8 -14 24 -122 17 -122 -3 0 -19 9 -36 21 -16 11 -57 34 -90 51 l-59 30
-21 -24 c-11 -14 -24 -33 -30 -42 -7 -13 -9 -4 -7 33 l4 50 66 4 c37 2 86 4
109 5 23 1 44 -2 47 -6z m-262 -79 c1 -71 -1 -135 -5 -140 -1 -1 -58 1 -126 4
l-124 6 6 79 c3 44 7 82 10 85 3 2 36 -14 73 -36 37 -23 74 -41 81 -41 9 0 13
17 13 60 l0 60 35 0 35 0 2 -77z m219 -25 l104 -63 7 -60 c12 -93 -1 -261 -21
-279 -9 -8 -71 -44 -137 -80 -85 -47 -127 -64 -140 -59 -20 7 -55 36 -114 92
-19 18 -52 45 -72 58 -61 41 -88 98 -88 186 0 85 1 87 98 87 l52 0 0 -89 c0
-88 0 -90 32 -116 46 -39 92 -59 120 -52 14 4 46 26 71 50 43 40 47 47 47 91
0 63 -10 78 -83 127 -34 23 -64 44 -67 46 -4 4 21 57 48 101 8 12 20 22 27 22
6 0 59 -28 116 -62z m-155 -103 c19 -14 19 -14 -2 -15 -12 0 -24 7 -28 15 -7
19 5 19 30 0z m-346 -152 c20 -149 23 -137 -40 -145 -120 -16 -112 -18 -139
37 -26 54 -51 144 -51 188 l0 27 108 0 108 0 14 -107z m280 12 c0 -52 -4 -95
-9 -95 -5 0 -23 13 -40 29 -27 25 -31 36 -31 79 0 71 6 82 46 82 l34 0 0 -95z
m150 80 c17 -21 16 -100 -2 -127 -19 -28 -94 -82 -105 -75 -4 3 -7 53 -5 111
l3 106 48 0 c30 0 53 -6 61 -15z m396 0 c9 -23 -22 -148 -51 -206 -22 -43 -30
-50 -48 -45 -12 3 -42 8 -66 12 l-44 7 7 60 c3 33 6 89 6 123 l0 64 95 0 c76
0 97 -3 101 -15z m-786 -277 c0 -21 57 -126 90 -168 l31 -39 -31 9 c-57 16
-154 78 -204 129 -28 28 -47 54 -43 57 20 21 157 30 157 12z m630 1 c27 -6 50
-14 50 -18 0 -14 -104 -107 -150 -134 -25 -14 -65 -33 -89 -41 l-42 -16 35 49
c20 26 46 70 58 97 40 84 40 84 138 63z m-486 -59 l96 -55 0 -57 c0 -32 -2
-58 -5 -58 -20 0 -87 45 -114 75 -34 39 -99 159 -82 154 5 -2 52 -29 105 -59z
m295 -35 c-41 -68 -73 -99 -121 -120 l-38 -15 0 47 1 48 92 51 c51 28 94 50
96 48 2 -2 -11 -28 -30 -59z"/>
</g>
</svg>
